:FULLY-SPECIFIED
:FORCE-ALL-JOINTS-BE-3DOF
:DEGREES
2446
root 2.43268 14.7525 -23.3609 -150.708 83.0749 -150.441
lfemur -37.1466 19.277 -13.7043
ltibia 74.3356 -0 0
lfoot -25.2616 16.1332 -0.172288
ltoes -38.7561 0 0
rfemur -40.9832 -22.1833 11.8045
rtibia 63.0316 -0 0
rfoot 7.06776 -2.7322 0.962359
rtoes 0.780743 -0 0
lowerback 15.9019 1.12766 -3.9049
upperback -1.00529 1.04861 2.6147
thorax -9.98786 0.811193 4.83562
lowerneck 3.15013 -13.4304 -15.2069
upperneck 1.38814 -18.6505 13.1062
head 2.56415 -9.39881 5.65292
lclavicle 1.08586e-14 -2.66371e-14 0
lhumerus -37.2859 -40.9906 107.84
lradius 103.882 -0 0
lwrist 60.4204 0 0
lhand -1.74621 41.7832 0.0821201
lfingers 7.12502 -0 0
lthumb 23.7958 68.8722 -0.310169
rclavicle 1.08586e-14 -2.66371e-14 0
rhumerus 18.684 14.916 -69.672
rradius 110.723 -0 0
rwrist 4.55797 0 0
rhand -30.0389 -44.5507 0.491294
rfingers 7.12502 -0 0
rthumb -3.35336 -74.0471 0.477933
2447
root 2.49834 14.7452 -23.3785 -150.914 83.0421 -150.465
lfemur -36.6978 19.488 -13.6538
ltibia 74.4211 -0 0
lfoot -25.575 16.2948 -0.166981
ltoes -38.6794 0 0
rfemur -41.1245 -22.2427 11.4063
rtibia 61.9813 -0 0
rfoot 7.65456 -2.2486 0.932583
rtoes 1.24749 -0 0
lowerback 15.8983 1.01284 -4.01361
upperback -1.00634 0.884126 2.69743
thorax -9.97792 0.741346 5.02962
lowerneck 3.143 -13.4363 -15.2506
upperneck 1.52107 -18.6656 13.0574
head 2.60591 -9.40628 5.63766
lclavicle 1.08586e-14 -2.66371e-14 0
lhumerus -38.0696 -41.3614 108.253
lradius 104.317 -0 0
lwrist 61.6707 0 0
lhand -0.673847 41.8058 0.0795653
lfingers 7.12502 -0 0
lthumb 24.8249 68.7831 -0.300527
rclavicle 1.08586e-14 -2.66371e-14 0
rhumerus 17.3556 13.4817 -70.1766
rradius 110.514 -0 0
rwrist 6.81706 0 0
rhand -30.7615 -44.7511 0.476095
rfingers 7.12502 -0 0
rthumb -4.05077 -74.2491 0.463152
2448
root 2.56401 14.7379 -23.3962 -151.119 83.0092 -150.488
lfemur -36.2482 19.6987 -13.6014
ltibia 74.5066 -0 0
lfoot -25.8884 16.4565 -0.160789
ltoes -38.6028 0 0
rfemur -41.2653 -22.303 11.0082
rtibia 60.9311 -0 0
rfoot 8.24107 -1.76534 0.897857
rtoes 1.71424 -0 0
lowerback 15.8949 0.898008 -4.1223
upperback -1.00764 0.719639 2.78015
thorax -9.96823 0.671466 5.22361
lowerneck 3.13587 -13.4422 -15.2943
upperneck 1.65402 -18.6806 13.0085
head 2.64768 -9.41373 5.62239
lclavicle 1.08586e-14 -2.66371e-14 0
lhumerus -38.8613 -41.7279 108.675
lradius 104.753 -0 0
lwrist 62.9211 0 0
lhand 0.398512 41.8284 0.0765868
lfingers 7.12502 -0 0
lthumb 25.854 68.6942 -0.289285
rclavicle 1.08586e-14 -2.66371e-14 0
rhumerus 16.0477 12.0366 -70.6442
rradius 110.305 -0 0
rwrist 9.07617 0 0
rhand -31.4841 -44.9514 0.45837
rfingers 7.12502 -0 0
rthumb -4.74813 -74.4509 0.445915
2449
root 2.62967 14.7306 -23.4139 -151.322 82.9763 -150.51
lfemur -35.7979 19.9089 -13.5472
ltibia 74.5921 -0 0
lfoot -26.2018 16.618 -0.153714
ltoes -38.5262 0 0
rfemur -41.4058 -22.3642 10.61
rtibia 59.8809 -0 0
rfoot 8.82726 -1.28246 0.858188
rtoes 2.18099 -0 0
lowerback 15.8917 0.78317 -4.23099
upperback -1.00918 0.555155 2.86287
thorax -9.95876 0.601553 5.41758
lowerneck 3.12875 -13.4481 -15.3381
upperneck 1.787 -18.6955 12.9596
head 2.68946 -9.42117 5.60711
lclavicle 1.08586e-14 -2.66371e-14 0
lhumerus -39.6611 -42.0899 109.106
lradius 105.189 -0 0
lwrist 64.1714 0 0
lhand 1.47087 41.851 0.0731859
lfingers 7.12502 -0 0
lthumb 26.883 68.6055 -0.276449
rclavicle 1.08586e-14 -2.66371e-14 0
rhumerus 14.7585 10.5814 -71.0757
rradius 110.096 -0 0
rwrist 11.3353 0 0
rhand -32.2066 -45.1513 0.438122
rfingers 7.12502 -0 0
rthumb -5.44542 -74.6525 0.426222
